<?xml version="1.0" encoding="UTF-8" ?>
<!DOCTYPE svg PUBLIC "-//W3C//DTD SVG 1.1//EN" "http://www.w3.org/Graphics/SVG/1.1/DTD/svg11.dtd">
<svg width="202pt" height="236pt" viewBox="0 0 202 236" version="1.1" xmlns="http://www.w3.org/2000/svg">
<g id="#fefefeff">
<path fill="#fefefe" opacity="1.00" d=" M 95.94 4.01 C 108.09 1.49 120.60 1.40 132.92 2.53 C 131.36 7.57 129.14 12.37 127.20 17.27 C 110.73 57.80 94.23 98.31 77.79 138.85 C 75.74 143.81 73.63 148.75 71.88 153.83 C 68.35 163.96 63.87 173.72 60.07 183.74 C 65.98 183.84 71.89 183.85 77.79 183.74 C 94.53 143.08 110.94 102.28 127.55 61.57 C 131.07 52.73 134.86 43.99 138.02 35.01 C 141.63 25.30 145.80 15.82 149.54 6.16 C 154.98 7.48 160.38 9.22 165.34 11.86 C 135.97 84.21 106.38 156.48 76.81 228.75 C 61.66 223.01 47.64 214.13 36.16 202.68 C 49.50 168.77 64.08 135.35 77.02 101.29 C 73.07 101.20 69.11 101.23 65.16 101.30 C 52.33 130.82 40.84 160.91 28.68 190.71 C 28.26 191.54 27.83 192.36 27.37 193.17 C 8.22 169.61 -1.37 138.49 1.53 108.24 C 4.19 81.85 15.70 56.29 34.28 37.28 C 50.85 20.30 72.63 8.48 95.94 4.01 Z" />
<path fill="#fefefe" opacity="1.00" d=" M 185.38 25.14 C 185.74 23.89 187.36 23.96 188.09 24.82 C 192.78 28.13 197.07 31.97 201.10 36.04 C 191.18 61.32 180.63 86.35 170.52 111.56 C 153.59 153.00 136.93 194.56 120.00 236.00 L 107.60 236.00 C 105.03 235.72 102.48 235.30 99.94 234.89 C 101.59 230.02 103.65 225.32 105.59 220.57 C 132.17 155.42 158.84 90.30 185.38 25.14 Z" />
<path fill="#fefefe" opacity="1.00" d=" M 157.02 183.74 C 166.18 183.58 175.35 183.51 184.50 183.78 C 180.27 195.82 174.97 207.46 170.38 219.36 C 169.13 221.95 168.60 225.55 165.46 226.52 C 156.14 230.63 146.25 233.67 136.11 234.84 C 143.13 217.83 149.93 200.72 157.02 183.74 Z" />
</g>
</svg>
